<mxfile host="app.diagrams.net" agent="Mozilla/5.0 (Macintosh; Intel Mac OS X 10_15_7) AppleWebKit/537.36 (KHTML, like Gecko) Chrome/128.0.0.0 Safari/537.36" version="24.7.14">
  <diagram name="Страница — 1" id="zKd8_6s5wJuQCmAyahKp">
    <mxGraphModel grid="1" page="1" gridSize="10" guides="1" tooltips="1" connect="1" arrows="1" fold="1" pageScale="1" pageWidth="1100" pageHeight="850" math="0" shadow="0">
      <root>
        <mxCell id="0" />
        <mxCell id="1" parent="0" />
        <mxCell id="JuCzdgNLs3OFHbB1CMZk-1" value="Reader" style="shape=table;startSize=30;container=1;collapsible=1;childLayout=tableLayout;fixedRows=1;rowLines=0;fontStyle=1;align=center;resizeLast=1;" vertex="1" parent="1">
          <mxGeometry x="890" y="370" width="290" height="150" as="geometry" />
        </mxCell>
        <mxCell id="JuCzdgNLs3OFHbB1CMZk-2" value="" style="shape=partialRectangle;collapsible=0;dropTarget=0;pointerEvents=0;fillColor=none;points=[[0,0.5],[1,0.5]];portConstraint=eastwest;top=0;left=0;right=0;bottom=1;" vertex="1" parent="JuCzdgNLs3OFHbB1CMZk-1">
          <mxGeometry y="30" width="290" height="30" as="geometry" />
        </mxCell>
        <mxCell id="JuCzdgNLs3OFHbB1CMZk-3" value="PK" style="shape=partialRectangle;overflow=hidden;connectable=0;fillColor=none;top=0;left=0;bottom=0;right=0;fontStyle=1;" vertex="1" parent="JuCzdgNLs3OFHbB1CMZk-2">
          <mxGeometry width="30" height="30" as="geometry">
            <mxRectangle width="30" height="30" as="alternateBounds" />
          </mxGeometry>
        </mxCell>
        <mxCell id="JuCzdgNLs3OFHbB1CMZk-4" value="reader_id; integer UNIQUE int NOT NULL " style="shape=partialRectangle;overflow=hidden;connectable=0;fillColor=none;top=0;left=0;bottom=0;right=0;align=left;spacingLeft=6;fontStyle=1;" vertex="1" parent="JuCzdgNLs3OFHbB1CMZk-2">
          <mxGeometry x="30" width="260" height="30" as="geometry">
            <mxRectangle width="260" height="30" as="alternateBounds" />
          </mxGeometry>
        </mxCell>
        <mxCell id="JuCzdgNLs3OFHbB1CMZk-5" value="" style="shape=partialRectangle;collapsible=0;dropTarget=0;pointerEvents=0;fillColor=none;points=[[0,0.5],[1,0.5]];portConstraint=eastwest;top=0;left=0;right=0;bottom=0;" vertex="1" parent="JuCzdgNLs3OFHbB1CMZk-1">
          <mxGeometry y="60" width="290" height="90" as="geometry" />
        </mxCell>
        <mxCell id="JuCzdgNLs3OFHbB1CMZk-6" value="" style="shape=partialRectangle;overflow=hidden;connectable=0;fillColor=none;top=0;left=0;bottom=0;right=0;verticalAlign=top;" vertex="1" parent="JuCzdgNLs3OFHbB1CMZk-5">
          <mxGeometry width="30" height="90" as="geometry">
            <mxRectangle width="30" height="90" as="alternateBounds" />
          </mxGeometry>
        </mxCell>
        <mxCell id="JuCzdgNLs3OFHbB1CMZk-7" value="first_name char(50) NOT NULL&#xa;&#xa;last_name char(50) NOT NULL&#xa;&#xa;address int NOT NULL&#xa;&#xa;&#xa;" style="shape=partialRectangle;overflow=hidden;connectable=0;fillColor=none;top=0;left=0;bottom=0;right=0;align=left;spacingLeft=6;verticalAlign=top;" vertex="1" parent="JuCzdgNLs3OFHbB1CMZk-5">
          <mxGeometry x="30" width="260" height="90" as="geometry">
            <mxRectangle width="260" height="90" as="alternateBounds" />
          </mxGeometry>
        </mxCell>
        <mxCell id="JuCzdgNLs3OFHbB1CMZk-8" value="Loan" style="shape=table;startSize=30;container=1;collapsible=1;childLayout=tableLayout;fixedRows=1;rowLines=0;fontStyle=1;align=center;resizeLast=1;" vertex="1" parent="1">
          <mxGeometry x="470" y="370" width="320" height="210" as="geometry" />
        </mxCell>
        <mxCell id="JuCzdgNLs3OFHbB1CMZk-9" value="" style="shape=partialRectangle;collapsible=0;dropTarget=0;pointerEvents=0;fillColor=none;points=[[0,0.5],[1,0.5]];portConstraint=eastwest;top=0;left=0;right=0;bottom=1;" vertex="1" parent="JuCzdgNLs3OFHbB1CMZk-8">
          <mxGeometry y="30" width="320" height="30" as="geometry" />
        </mxCell>
        <mxCell id="JuCzdgNLs3OFHbB1CMZk-10" value="PK" style="shape=partialRectangle;overflow=hidden;connectable=0;fillColor=none;top=0;left=0;bottom=0;right=0;fontStyle=1;" vertex="1" parent="JuCzdgNLs3OFHbB1CMZk-9">
          <mxGeometry width="30" height="30" as="geometry">
            <mxRectangle width="30" height="30" as="alternateBounds" />
          </mxGeometry>
        </mxCell>
        <mxCell id="JuCzdgNLs3OFHbB1CMZk-11" value="loan_id; integer UNIQUE int NOT NULL " style="shape=partialRectangle;overflow=hidden;connectable=0;fillColor=none;top=0;left=0;bottom=0;right=0;align=left;spacingLeft=6;fontStyle=1;" vertex="1" parent="JuCzdgNLs3OFHbB1CMZk-9">
          <mxGeometry x="30" width="290" height="30" as="geometry">
            <mxRectangle width="290" height="30" as="alternateBounds" />
          </mxGeometry>
        </mxCell>
        <mxCell id="JuCzdgNLs3OFHbB1CMZk-12" value="" style="shape=partialRectangle;collapsible=0;dropTarget=0;pointerEvents=0;fillColor=none;points=[[0,0.5],[1,0.5]];portConstraint=eastwest;top=0;left=0;right=0;bottom=0;" vertex="1" parent="JuCzdgNLs3OFHbB1CMZk-8">
          <mxGeometry y="60" width="320" height="150" as="geometry" />
        </mxCell>
        <mxCell id="JuCzdgNLs3OFHbB1CMZk-13" value="FK&#xa;&#xa;FK&#xa;&#xa;&#xa;&#xa;&#xa;&#xa;&#xa;" style="shape=partialRectangle;overflow=hidden;connectable=0;fillColor=none;top=0;left=0;bottom=0;right=0;" vertex="1" parent="JuCzdgNLs3OFHbB1CMZk-12">
          <mxGeometry width="30" height="150" as="geometry">
            <mxRectangle width="30" height="150" as="alternateBounds" />
          </mxGeometry>
        </mxCell>
        <mxCell id="JuCzdgNLs3OFHbB1CMZk-14" value="reader_id int NOT NULL&#xa;&#xa;book_id int NOT NULL&#xa;&#xa;loan_date_and_time timestamp NOT NULL&#xa;&#xa;return_date_and_time timestamp NOT NULL&#xa;&#xa;actual_return_date_and_time timestamp NOT NULL&#xa;" style="shape=partialRectangle;overflow=hidden;connectable=0;fillColor=none;top=0;left=0;bottom=0;right=0;align=left;spacingLeft=6;verticalAlign=top;" vertex="1" parent="JuCzdgNLs3OFHbB1CMZk-12">
          <mxGeometry x="30" width="290" height="150" as="geometry">
            <mxRectangle width="290" height="150" as="alternateBounds" />
          </mxGeometry>
        </mxCell>
        <mxCell id="JuCzdgNLs3OFHbB1CMZk-22" value="Author" style="shape=table;startSize=30;container=1;collapsible=1;childLayout=tableLayout;fixedRows=1;rowLines=0;fontStyle=1;align=center;resizeLast=1;" vertex="1" parent="1">
          <mxGeometry x="80" y="50" width="280" height="120" as="geometry" />
        </mxCell>
        <mxCell id="JuCzdgNLs3OFHbB1CMZk-23" value="" style="shape=partialRectangle;collapsible=0;dropTarget=0;pointerEvents=0;fillColor=none;points=[[0,0.5],[1,0.5]];portConstraint=eastwest;top=0;left=0;right=0;bottom=1;" vertex="1" parent="JuCzdgNLs3OFHbB1CMZk-22">
          <mxGeometry y="30" width="280" height="30" as="geometry" />
        </mxCell>
        <mxCell id="JuCzdgNLs3OFHbB1CMZk-24" value="PK" style="shape=partialRectangle;overflow=hidden;connectable=0;fillColor=none;top=0;left=0;bottom=0;right=0;fontStyle=1;" vertex="1" parent="JuCzdgNLs3OFHbB1CMZk-23">
          <mxGeometry width="30" height="30" as="geometry">
            <mxRectangle width="30" height="30" as="alternateBounds" />
          </mxGeometry>
        </mxCell>
        <mxCell id="JuCzdgNLs3OFHbB1CMZk-25" value="author_id; integer UNIQUE int NOT NULL " style="shape=partialRectangle;overflow=hidden;connectable=0;fillColor=none;top=0;left=0;bottom=0;right=0;align=left;spacingLeft=6;fontStyle=1;" vertex="1" parent="JuCzdgNLs3OFHbB1CMZk-23">
          <mxGeometry x="30" width="250" height="30" as="geometry">
            <mxRectangle width="250" height="30" as="alternateBounds" />
          </mxGeometry>
        </mxCell>
        <mxCell id="JuCzdgNLs3OFHbB1CMZk-26" value="" style="shape=partialRectangle;collapsible=0;dropTarget=0;pointerEvents=0;fillColor=none;points=[[0,0.5],[1,0.5]];portConstraint=eastwest;top=0;left=0;right=0;bottom=0;" vertex="1" parent="JuCzdgNLs3OFHbB1CMZk-22">
          <mxGeometry y="60" width="280" height="60" as="geometry" />
        </mxCell>
        <mxCell id="JuCzdgNLs3OFHbB1CMZk-27" value="" style="shape=partialRectangle;overflow=hidden;connectable=0;fillColor=none;top=0;left=0;bottom=0;right=0;" vertex="1" parent="JuCzdgNLs3OFHbB1CMZk-26">
          <mxGeometry width="30" height="60" as="geometry">
            <mxRectangle width="30" height="60" as="alternateBounds" />
          </mxGeometry>
        </mxCell>
        <mxCell id="JuCzdgNLs3OFHbB1CMZk-28" value="first_name char(50) NOT NULL&#xa;&#xa;last_name char(50) NOT NULL&#xa;&#xa;" style="shape=partialRectangle;overflow=hidden;connectable=0;fillColor=none;top=0;left=0;bottom=0;right=0;align=left;spacingLeft=6;verticalAlign=top;" vertex="1" parent="JuCzdgNLs3OFHbB1CMZk-26">
          <mxGeometry x="30" width="250" height="60" as="geometry">
            <mxRectangle width="250" height="60" as="alternateBounds" />
          </mxGeometry>
        </mxCell>
        <mxCell id="JuCzdgNLs3OFHbB1CMZk-29" value="Book" style="shape=table;startSize=30;container=1;collapsible=1;childLayout=tableLayout;fixedRows=1;rowLines=0;fontStyle=1;align=center;resizeLast=1;" vertex="1" parent="1">
          <mxGeometry x="80" y="370" width="280" height="120" as="geometry" />
        </mxCell>
        <mxCell id="JuCzdgNLs3OFHbB1CMZk-30" value="" style="shape=partialRectangle;collapsible=0;dropTarget=0;pointerEvents=0;fillColor=none;points=[[0,0.5],[1,0.5]];portConstraint=eastwest;top=0;left=0;right=0;bottom=1;" vertex="1" parent="JuCzdgNLs3OFHbB1CMZk-29">
          <mxGeometry y="30" width="280" height="30" as="geometry" />
        </mxCell>
        <mxCell id="JuCzdgNLs3OFHbB1CMZk-31" value="PK" style="shape=partialRectangle;overflow=hidden;connectable=0;fillColor=none;top=0;left=0;bottom=0;right=0;fontStyle=1;" vertex="1" parent="JuCzdgNLs3OFHbB1CMZk-30">
          <mxGeometry width="30" height="30" as="geometry">
            <mxRectangle width="30" height="30" as="alternateBounds" />
          </mxGeometry>
        </mxCell>
        <mxCell id="JuCzdgNLs3OFHbB1CMZk-32" value="book_id; integer UNIQUE int NOT NULL " style="shape=partialRectangle;overflow=hidden;connectable=0;fillColor=none;top=0;left=0;bottom=0;right=0;align=left;spacingLeft=6;fontStyle=1;" vertex="1" parent="JuCzdgNLs3OFHbB1CMZk-30">
          <mxGeometry x="30" width="250" height="30" as="geometry">
            <mxRectangle width="250" height="30" as="alternateBounds" />
          </mxGeometry>
        </mxCell>
        <mxCell id="JuCzdgNLs3OFHbB1CMZk-33" value="" style="shape=partialRectangle;collapsible=0;dropTarget=0;pointerEvents=0;fillColor=none;points=[[0,0.5],[1,0.5]];portConstraint=eastwest;top=0;left=0;right=0;bottom=0;" vertex="1" parent="JuCzdgNLs3OFHbB1CMZk-29">
          <mxGeometry y="60" width="280" height="60" as="geometry" />
        </mxCell>
        <mxCell id="JuCzdgNLs3OFHbB1CMZk-34" value="" style="shape=partialRectangle;overflow=hidden;connectable=0;fillColor=none;top=0;left=0;bottom=0;right=0;align=center;verticalAlign=top;" vertex="1" parent="JuCzdgNLs3OFHbB1CMZk-33">
          <mxGeometry width="30" height="60" as="geometry">
            <mxRectangle width="30" height="60" as="alternateBounds" />
          </mxGeometry>
        </mxCell>
        <mxCell id="JuCzdgNLs3OFHbB1CMZk-35" value="title char(50) NOT NULL&#xa;&#xa;publish_year int NOT NUL&#xa;&#xa;" style="shape=partialRectangle;overflow=hidden;connectable=0;fillColor=none;top=0;left=0;bottom=0;right=0;align=left;spacingLeft=6;verticalAlign=top;" vertex="1" parent="JuCzdgNLs3OFHbB1CMZk-33">
          <mxGeometry x="30" width="250" height="60" as="geometry">
            <mxRectangle width="250" height="60" as="alternateBounds" />
          </mxGeometry>
        </mxCell>
        <mxCell id="3Izhy9fbMNz6WEQ48sMC-1" value="Author_Book" style="shape=table;startSize=30;container=1;collapsible=1;childLayout=tableLayout;fixedRows=1;rowLines=0;fontStyle=1;align=center;resizeLast=1;" vertex="1" parent="1">
          <mxGeometry x="80" y="210" width="280" height="120" as="geometry" />
        </mxCell>
        <mxCell id="3Izhy9fbMNz6WEQ48sMC-2" value="" style="shape=partialRectangle;collapsible=0;dropTarget=0;pointerEvents=0;fillColor=none;points=[[0,0.5],[1,0.5]];portConstraint=eastwest;top=0;left=0;right=0;bottom=1;" vertex="1" parent="3Izhy9fbMNz6WEQ48sMC-1">
          <mxGeometry y="30" width="280" height="30" as="geometry" />
        </mxCell>
        <mxCell id="3Izhy9fbMNz6WEQ48sMC-3" value="PK" style="shape=partialRectangle;overflow=hidden;connectable=0;fillColor=none;top=0;left=0;bottom=0;right=0;fontStyle=1;" vertex="1" parent="3Izhy9fbMNz6WEQ48sMC-2">
          <mxGeometry width="30" height="30" as="geometry">
            <mxRectangle width="30" height="30" as="alternateBounds" />
          </mxGeometry>
        </mxCell>
        <mxCell id="3Izhy9fbMNz6WEQ48sMC-4" value="tab_id; integer UNIQUE int NOT NULL " style="shape=partialRectangle;overflow=hidden;connectable=0;fillColor=none;top=0;left=0;bottom=0;right=0;align=left;spacingLeft=6;fontStyle=1;" vertex="1" parent="3Izhy9fbMNz6WEQ48sMC-2">
          <mxGeometry x="30" width="250" height="30" as="geometry">
            <mxRectangle width="250" height="30" as="alternateBounds" />
          </mxGeometry>
        </mxCell>
        <mxCell id="3Izhy9fbMNz6WEQ48sMC-5" value="" style="shape=partialRectangle;collapsible=0;dropTarget=0;pointerEvents=0;fillColor=none;points=[[0,0.5],[1,0.5]];portConstraint=eastwest;top=0;left=0;right=0;bottom=0;" vertex="1" parent="3Izhy9fbMNz6WEQ48sMC-1">
          <mxGeometry y="60" width="280" height="60" as="geometry" />
        </mxCell>
        <mxCell id="3Izhy9fbMNz6WEQ48sMC-6" value="FK&#xa;&#xa;FK&#xa;" style="shape=partialRectangle;overflow=hidden;connectable=0;fillColor=none;top=0;left=0;bottom=0;right=0;align=center;verticalAlign=top;" vertex="1" parent="3Izhy9fbMNz6WEQ48sMC-5">
          <mxGeometry width="30" height="60" as="geometry">
            <mxRectangle width="30" height="60" as="alternateBounds" />
          </mxGeometry>
        </mxCell>
        <mxCell id="3Izhy9fbMNz6WEQ48sMC-7" value="author_id int NOT NUL&#xa;&#xa;book_id int NOT NUL&#xa;" style="shape=partialRectangle;overflow=hidden;connectable=0;fillColor=none;top=0;left=0;bottom=0;right=0;align=left;spacingLeft=6;verticalAlign=top;" vertex="1" parent="3Izhy9fbMNz6WEQ48sMC-5">
          <mxGeometry x="30" width="250" height="60" as="geometry">
            <mxRectangle width="250" height="60" as="alternateBounds" />
          </mxGeometry>
        </mxCell>
        <mxCell id="3Izhy9fbMNz6WEQ48sMC-9" value="" style="endArrow=ERoneToMany;html=1;rounded=0;entryX=1;entryY=0.123;entryDx=0;entryDy=0;entryPerimeter=0;startArrow=ERmandOne;startFill=0;endFill=0;" edge="1" parent="1" target="3Izhy9fbMNz6WEQ48sMC-1">
          <mxGeometry width="50" height="50" relative="1" as="geometry">
            <mxPoint x="360" y="67" as="sourcePoint" />
            <mxPoint x="420" y="240" as="targetPoint" />
            <Array as="points">
              <mxPoint x="420" y="67" />
              <mxPoint x="420" y="225" />
            </Array>
          </mxGeometry>
        </mxCell>
        <mxCell id="3Izhy9fbMNz6WEQ48sMC-10" value="" style="endArrow=ERoneToMany;html=1;rounded=0;entryX=-0.003;entryY=0.149;entryDx=0;entryDy=0;entryPerimeter=0;startArrow=ERmandOne;startFill=0;endFill=0;exitX=0.001;exitY=0.132;exitDx=0;exitDy=0;exitPerimeter=0;" edge="1" parent="1" source="JuCzdgNLs3OFHbB1CMZk-29" target="3Izhy9fbMNz6WEQ48sMC-1">
          <mxGeometry width="50" height="50" relative="1" as="geometry">
            <mxPoint x="77" y="387" as="sourcePoint" />
            <mxPoint x="40" y="258" as="targetPoint" />
            <Array as="points">
              <mxPoint x="30" y="387" />
              <mxPoint x="30" y="250" />
              <mxPoint x="30" y="228" />
            </Array>
          </mxGeometry>
        </mxCell>
        <mxCell id="3Izhy9fbMNz6WEQ48sMC-11" value="" style="endArrow=ERzeroToMany;html=1;rounded=0;startArrow=ERone;startFill=0;endFill=0;" edge="1" parent="1">
          <mxGeometry width="50" height="50" relative="1" as="geometry">
            <mxPoint x="360" y="386" as="sourcePoint" />
            <mxPoint x="470" y="386" as="targetPoint" />
          </mxGeometry>
        </mxCell>
        <mxCell id="3Izhy9fbMNz6WEQ48sMC-12" value="" style="endArrow=ERone;html=1;rounded=0;startArrow=ERzeroToMany;startFill=0;endFill=0;exitX=1;exitY=0.097;exitDx=0;exitDy=0;exitPerimeter=0;" edge="1" parent="1" source="JuCzdgNLs3OFHbB1CMZk-8">
          <mxGeometry width="50" height="50" relative="1" as="geometry">
            <mxPoint x="800" y="390" as="sourcePoint" />
            <mxPoint x="890" y="390" as="targetPoint" />
          </mxGeometry>
        </mxCell>
      </root>
    </mxGraphModel>
  </diagram>
</mxfile>
